<svg xmlns="http://www.w3.org/2000/svg" viewBox="0 0 289.43 132.01"><defs><style>.cls-1{fill:#545ee1;}</style></defs><title>logo</title><g id="Layer_2" data-name="Layer 2"><g id="Layer_1-2" data-name="Layer 1"><path class="cls-1" d="M107,2v24.5H67.83V130H38.94V26.51H0V2Z"/><path class="cls-1" d="M151.39,2V130H122.5V2Z"/><path class="cls-1" d="M257,29.71a39.23,39.23,0,0,0-17.83-4.48A38.35,38.35,0,0,0,205.32,45a40.82,40.82,0,0,0-5.12,20.29,41.31,41.31,0,0,0,5.12,20.39,38.59,38.59,0,0,0,14.08,14.63,37.54,37.54,0,0,0,19.75,5.39,41.29,41.29,0,0,0,17.46-4.11A54.86,54.86,0,0,0,272.42,90.5l17,18.47a77,77,0,0,1-24,16.82,67,67,0,0,1-27.7,6.22,68.23,68.23,0,0,1-34.19-8.68,63.43,63.43,0,0,1-24.13-23.86,66.33,66.33,0,0,1-8.78-33.82,63.86,63.86,0,0,1,33.55-57A70.72,70.72,0,0,1,238.78,0a72.22,72.22,0,0,1,50.46,21.39L272.42,42.05A48.62,48.62,0,0,0,257,29.71Z"/></g></g></svg>